<?xml version="1.0" encoding="UTF-8"?>
<svg width="70pt" height="70pt" version="1.1" viewBox="0 0 700 700" xmlns="http://www.w3.org/2000/svg" xmlns:xlink="http://www.w3.org/1999/xlink">
 <g>
  <path d="m504 129.92-110.32-104.16h-197.68v390.32h87.922v118.16l66.078-57.68 66.078 57.68v-118.16h87.922zm-103.6-67.203 64.402 60.48h-64.402zm-50.398 320.32c-13.961 0-27.352-5.5469-37.223-15.418s-15.418-23.262-15.418-37.223c0-13.961 5.5469-27.348 15.418-37.219 9.8711-9.875 23.262-15.418 37.223-15.418s27.352 5.543 37.223 15.418c9.8711 9.8711 15.418 23.258 15.418 37.219 0 13.961-5.5469 27.352-15.418 37.223s-23.262 15.418-37.223 15.418zm0 63.84-43.68 38.078v-93.516c12.652 9.0703 27.832 13.949 43.398 13.949 15.57 0 30.75-4.8789 43.402-13.949v93.52zm66.078-53.199v-27.441c12.746-23.246 12.277-51.496-1.2305-74.309-13.508-22.812-38.055-36.805-64.566-36.805-26.516 0-51.059 13.992-64.57 36.805-13.508 22.812-13.977 51.062-1.2305 74.309v27.441h-66.082v-345.52h159.6v97.441h103.6v248.08z"/>
  <path d="m304.64 188.16h91.281v22.398h-91.281z"/>
  <use x="70" y="644" xlink:href="#s"/>
  <use x="90.550781" y="644" xlink:href="#c"/>
  <use x="104.359375" y="644" xlink:href="#a"/>
  <use x="123.347656" y="644" xlink:href="#f"/>
  <use x="142.242188" y="644" xlink:href="#b"/>
  <use x="155.628906" y="644" xlink:href="#a"/>
  <use x="174.617188" y="644" xlink:href="#j"/>
  <use x="204.410156" y="644" xlink:href="#i"/>
  <use x="224.453125" y="644" xlink:href="#h"/>
  <use x="252.453125" y="644" xlink:href="#e"/>
  <use x="275.882812" y="644" xlink:href="#f"/>
  <use x="294.78125" y="644" xlink:href="#r"/>
  <use x="313.03125" y="644" xlink:href="#a"/>
  <use x="332.023438" y="644" xlink:href="#a"/>
  <use x="351.011719" y="644" xlink:href="#g"/>
  <use x="70" y="672" xlink:href="#q"/>
  <use x="82.183594" y="672" xlink:href="#c"/>
  <use x="95.992188" y="672" xlink:href="#d"/>
  <use x="115.226562" y="672" xlink:href="#p"/>
  <use x="154.152344" y="672" xlink:href="#b"/>
  <use x="167.535156" y="672" xlink:href="#o"/>
  <use x="187.46875" y="672" xlink:href="#a"/>
  <use x="216.207031" y="672" xlink:href="#e"/>
  <use x="239.640625" y="672" xlink:href="#d"/>
  <use x="258.878906" y="672" xlink:href="#n"/>
  <use x="278.8125" y="672" xlink:href="#g"/>
  <use x="308.492188" y="672" xlink:href="#m"/>
  <use x="329.015625" y="672" xlink:href="#c"/>
  <use x="342.820312" y="672" xlink:href="#d"/>
  <use x="362.058594" y="672" xlink:href="#l"/>
  <use x="371.65625" y="672" xlink:href="#a"/>
  <use x="390.648438" y="672" xlink:href="#k"/>
  <use x="407.242188" y="672" xlink:href="#b"/>
 </g>
</svg>
