<?xml version="1.0" encoding="UTF-8"?>
<svg width="70pt" height="70pt" version="1.1" viewBox="0 0 700 700" xmlns="http://www.w3.org/2000/svg" xmlns:xlink="http://www.w3.org/1999/xlink">
 <g>
  <path d="m526.97 161.55h-35.656-48.781-4.0469-0.92969c-0.65625 0-1.6406-0.32812-2.2969-0.16406 0.054688 0 2.2422 0.38281 1.0391 0.10938-0.49219-0.10938-0.98438-0.16406-1.4766-0.27344-0.82031-0.21875-1.6406-0.4375-2.4609-0.71094-0.32812-0.10937-0.71094-0.27344-1.0391-0.38281-1.2031-0.38281 1.0391 0.38281 0.92969 0.4375-0.60156 0.32812-3.8828-2.1328-4.4297-2.4609-1.6953-1.0391 1.4219 1.3125-0.054687 0-0.60156-0.54687-1.2578-1.0938-1.8594-1.6953-0.49219-0.49219-0.98438-1.0391-1.4766-1.5859-0.10938-0.10937-0.71094-0.71094-0.71094-0.82031 0 0.16406 1.3125 1.9141 0.4375 0.49219-0.82031-1.3672-1.5312-2.7344-2.2969-4.0469-0.54688-0.98437 0.38281 0.875 0.38281 0.92969 0-0.27344-0.27344-0.76562-0.38281-1.0391-0.32812-0.92969-0.60156-1.8594-0.82031-2.8438-0.10937-0.4375-0.49219-2.8438-0.27344-1.0938 0.27344 1.75-0.054687-1.2031-0.054687-1.5859v-0.92969-1.3672-44.406c0-13.945 0.38281-28 0-41.945v-0.71094c-6.2344 2.5703-12.469 5.1406-18.648 7.7109 13.18 13.18 26.305 26.305 39.484 39.484l63 63c4.8672 4.8672 9.6797 9.6797 14.547 14.547 4.0469 4.0469 11.484 4.375 15.477 0 3.9922-4.375 4.3203-11.156 0-15.477-13.18-13.18-26.305-26.305-39.484-39.484l-63-63c-4.8672-4.8672-9.6797-9.6797-14.547-14.547-6.6719-6.6719-18.648-1.75-18.648 7.7109v36.969 48.508c0 9.1328 1.6406 18.266 7.2188 25.758 7.9297 10.664 19.633 16.68 32.977 16.734h43.477c14.492 0 29.039 0.27344 43.531 0h0.76562c5.7422 0 11.211-5.0312 10.938-10.938-0.16406-5.8516-4.7031-10.883-10.828-10.883z"/>
  <path d="m516.03 172.48v31.773 75.359 88.977 72.625 20.727 4.9766 0.82031c0 1.0391-0.054688 2.0781-0.10938 3.1172 0 0.27344-0.054687 0.49219-0.054687 0.76562-0.10938 0.98438-0.10938 0.98438 0 0.054688 0.054687-0.21875 0.054687-0.49219 0.10937-0.71094-0.054687 0.49219-0.16406 0.98438-0.27344 1.4766-0.27344 1.4219-0.65625 2.8438-1.1484 4.2656-0.16406 0.4375-0.32813 0.92969-0.49219 1.3672-0.82031 2.4062 1.1484-2.1875 0 0.054687-0.54688 1.0938-1.0938 2.1328-1.6953 3.1719-0.27344 0.4375-1.5859 3.0078-1.9688 3.0078 0 0 1.75-2.0781 0.38281-0.54688-0.54688 0.65625-1.0938 1.2578-1.6406 1.8594-0.71094 0.76562-1.4766 1.5312-2.2969 2.2422-0.27344 0.21875-1.3125 1.3672-1.6406 1.3672 0.38281 0 1.8047-1.2578 0.49219-0.4375-0.98437 0.65625-1.9688 1.3125-3.0078 1.9141-0.60156 0.38281-1.2578 0.71094-1.9141 1.0391l-0.65625 0.32812c-1.0938 0.49219-0.875 0.38281 0.60156-0.21875-0.16406 0.4375-3.0078 1.0391-3.4453 1.2031-1.2031 0.32812-2.4062 0.54688-3.6094 0.82031-2.4062 0.54688 1.9141-0.16406 0.32813 0-0.60156 0.054688-1.2578 0.10938-1.8594 0.16406-0.76562 0.054687-1.5312 0.054687-2.2969 0.054687h-0.71094-13.781-65.461-87.992-77.875c-11.375 0-22.75 0.10938-34.125 0-0.49219 0-1.0391 0-1.5312-0.054687-0.76562-0.054687-1.5312-0.10938-2.2422-0.16406-1.75-0.10937 0.65625 0.10938 0.65625 0.10938-0.21875 0.32812-7.5469-1.5312-7.7656-2.1328 0.21875 0.49219 2.0781 1.0391 0.27344 0.054687-0.54688-0.27344-1.0938-0.54687-1.5859-0.82031-1.0391-0.54688-2.0781-1.2031-3.0625-1.8594 0.054688 0.054687-1.2031-0.76562-1.1484-0.82031 0.38281 0.27344 0.71094 0.54688 1.0938 0.82031-0.38281-0.27344-0.76562-0.60156-1.0938-0.92969-0.98438-0.875-1.9141-1.75-2.8438-2.7344-0.38281-0.4375-0.82031-0.875-1.2031-1.3125-0.32812-0.38281-1.0391-1.9688-0.49219-0.54687 0.60156 1.5312-0.16406-0.27344-0.38281-0.65625-0.32812-0.49219-0.65625-0.98438-0.98438-1.5312-0.54688-0.92969-1.0938-1.8594-1.5859-2.8438-0.10938-0.21875-0.21875-0.4375-0.32813-0.65625-0.49219-1.0938-0.38281-0.875 0.21875 0.60156-0.16406-0.054688-0.71094-1.8594-0.76562-2.0234-0.38281-1.1484-0.71094-2.3516-0.98438-3.5547-0.054687-0.16406-0.54687-2.1328-0.4375-2.1875 0.054688 0 0.27344 2.8984 0.10938 0.65625-0.10938-1.2578-0.16406-2.5703-0.21875-3.8281v-7.7109-49.109-78.531-89.414-81.703-55.398-12.031-1.0391-0.16406c0-0.54688 0-0.98438 0.054687-1.5312 0-0.49219 0.054687-1.0391 0.10938-1.5312 0.054688-0.49219 0.10938-0.98438 0.16406-1.4766-0.21875 1.5312-0.27344 1.9141-0.10937 1.0391 0.54687-2.2969 1.0938-4.4844 1.8594-6.7266 0.82031-2.4062-1.1484 2.1875 0-0.054687l0.65625-1.3125c0.65625-1.2578 1.4219-2.5156 2.1875-3.7188 0.21875-0.32813 1.0391-2.1328 0.38281-0.65625-0.60156 1.4219 0.16406-0.16406 0.49219-0.54688 0.76563-0.92969 1.5859-1.75 2.4609-2.5703 0.54688-0.49219 2.0234-2.3516 2.6797-2.3516-0.38281 0-1.8047 1.2578-0.49219 0.4375 0.82031-0.49219 1.5859-1.0938 2.4062-1.5312 1.0391-0.60156 2.1328-1.1484 3.1719-1.6953 1.4766-0.76562-0.54688 0.054687-0.60156 0.21875 0.10938-0.21875 1.4219-0.54688 1.6953-0.65625 1.1484-0.38281 2.3516-0.71094 3.5-1.0391 0.60156-0.16406 1.2031-0.21875 1.8047-0.38281 2.3516-0.54688-2.1875 0.10938 0.054688-0.054688 1.4219-0.10937 2.8438-0.16406 4.3203-0.21875h5.5234 26.195 84.219 72.242 11.539c-2.5703-1.0938-5.1406-2.1328-7.7109-3.2266 13.18 13.18 26.305 26.305 39.484 39.484l63 63c4.8672 4.8672 9.6797 9.6797 14.547 14.547 4.0469 4.0469 11.484 4.375 15.477 0 3.9922-4.375 4.3203-11.156 0-15.477l-115.72-115.72c-2.625-2.625-5.5781-4.375-9.5156-4.4844-6.7812-0.16406-13.617 0-20.398 0h-92.531-79.844-6.5078c-9.8438 0.054688-19.852 2.8984-27.836 8.6406-13.562 9.7891-20.617 24.664-20.617 41.289v46.43 88.266 102.21 88.266 46.43c0 16.844 7.3281 31.938 21.219 41.672 9.5156 6.7266 20.617 8.2578 31.938 8.2578h64.695 100.19 85.586 21.602c1.4766 0 2.9531 0.054688 4.4297-0.054688 13.508-0.54687 26.797-6.6719 35.328-17.281 7.1641-8.9141 11.156-19.469 11.266-30.953v-4.0469-23.133-85.641-100.9-71.148-10.336c0-5.7422-5.0312-11.211-10.938-10.938-6.2344 0.4375-11.211 4.9766-11.211 11.102z"/>
  <path d="m246.2 282.62h20.562 49.438 59.773 51.734c8.4219 0 16.844 0.21875 25.211 0h0.38281c5.7422 0 11.211-5.0312 10.938-10.938-0.27344-5.9062-4.8125-10.938-10.938-10.938h-20.562-49.438-59.773-51.734c-8.4219 0-16.844-0.21875-25.211 0h-0.38281c-5.7422 0-11.211 5.0312-10.938 10.938s4.8125 10.938 10.938 10.938z"/>
  <path d="m246.2 352.68h20.562 49.438 59.773 51.734c8.4219 0 16.844 0.21875 25.211 0h0.38281c5.7422 0 11.211-5.0312 10.938-10.938-0.27344-5.9062-4.8125-10.938-10.938-10.938h-20.562-49.438-59.773-51.734c-8.4219 0-16.844-0.21875-25.211 0h-0.38281c-5.7422 0-11.211 5.0312-10.938 10.938 0.27344 5.9609 4.8125 10.938 10.938 10.938z"/>
  <path d="m246.2 422.79h42.219 67.648 15.477c5.7422 0 11.211-5.0312 10.938-10.938s-4.8125-10.938-10.938-10.938h-42.219-67.648-15.477c-5.7422 0-11.211 5.0312-10.938 10.938s4.8125 10.938 10.938 10.938z"/>
  <use x="70" y="568.203125" xlink:href="#v"/>
  <use x="72.007812" y="568.203125" xlink:href="#f"/>
  <use x="73.355469" y="568.203125" xlink:href="#a"/>
  <use x="75.210937" y="568.203125" xlink:href="#e"/>
  <use x="77.054688" y="568.203125" xlink:href="#d"/>
  <use x="78.363281" y="568.203125" xlink:href="#a"/>
  <use x="80.214844" y="568.203125" xlink:href="#k"/>
  <use x="83.125" y="568.203125" xlink:href="#j"/>
  <use x="85.082031" y="568.203125" xlink:href="#i"/>
  <use x="87.816406" y="568.203125" xlink:href="#c"/>
  <use x="89.445312" y="568.203125" xlink:href="#b"/>
  <use x="91.390625" y="568.203125" xlink:href="#e"/>
  <use x="93.238281" y="568.203125" xlink:href="#c"/>
  <use x="94.863281" y="568.203125" xlink:href="#b"/>
  <use x="96.8125" y="568.203125" xlink:href="#e"/>
  <use x="98.65625" y="568.203125" xlink:href="#h"/>
  <use x="100.601562" y="568.203125" xlink:href="#u"/>
  <use x="103.375" y="568.203125" xlink:href="#c"/>
  <use x="105" y="568.203125" xlink:href="#t"/>
  <use x="105.9375" y="568.203125" xlink:href="#h"/>
  <use x="107.882812" y="568.203125" xlink:href="#s"/>
  <use x="109.84375" y="568.203125" xlink:href="#b"/>
  <use x="70" y="570.9375" xlink:href="#r"/>
  <use x="71.191406" y="570.9375" xlink:href="#f"/>
  <use x="72.539062" y="570.9375" xlink:href="#g"/>
  <use x="74.417969" y="570.9375" xlink:href="#q"/>
  <use x="78.21875" y="570.9375" xlink:href="#d"/>
  <use x="79.523438" y="570.9375" xlink:href="#b"/>
  <use x="81.472656" y="570.9375" xlink:href="#a"/>
  <use x="84.277344" y="570.9375" xlink:href="#p"/>
  <use x="86.566406" y="570.9375" xlink:href="#g"/>
  <use x="88.445312" y="570.9375" xlink:href="#o"/>
  <use x="90.390625" y="570.9375" xlink:href="#h"/>
  <use x="93.289062" y="570.9375" xlink:href="#n"/>
  <use x="95.292969" y="570.9375" xlink:href="#f"/>
  <use x="96.644531" y="570.9375" xlink:href="#g"/>
  <use x="98.519531" y="570.9375" xlink:href="#m"/>
  <use x="99.457031" y="570.9375" xlink:href="#a"/>
  <use x="101.3125" y="570.9375" xlink:href="#l"/>
  <use x="102.933594" y="570.9375" xlink:href="#d"/>
 </g>
</svg>
