<?xml version="1.0" encoding="UTF-8"?>
<svg width="700pt" height="700pt" version="1.1" viewBox="0 0 700 700" xmlns="http://www.w3.org/2000/svg" xmlns:xlink="http://www.w3.org/1999/xlink">
 <g>
  <path d="m566.16 166.32c0-14.852-5.8984-29.098-16.402-39.598-10.5-10.504-24.746-16.402-39.598-16.402h-28.559v-30.242c0-6.1836-5.0156-11.199-11.203-11.199-6.1836 0-11.199 5.0156-11.199 11.199v30.238h-218.4v-30.238c0-6.1836-5.0156-11.199-11.199-11.199-6.1875 0-11.203 5.0156-11.203 11.199v30.238l-28.559 0.003906c-14.852 0-29.098 5.8984-39.598 16.402-10.504 10.5-16.402 24.746-16.402 39.598v268.8c0 14.852 5.8984 29.094 16.402 39.598 10.5 10.5 24.746 16.402 39.598 16.402h320.32c14.852 0 29.098-5.9023 39.598-16.402 10.504-10.504 16.402-24.746 16.402-39.598zm-376.32-33.602h28.559v21.281c0 6.1875 5.0156 11.199 11.203 11.199 6.1836 0 11.199-5.0117 11.199-11.199v-21.281h218.4v21.281c0 6.1875 5.0156 11.199 11.199 11.199 6.1875 0 11.203-5.0117 11.203-11.199v-21.281h28.559c8.9102 0 17.457 3.543 23.758 9.8438s9.8438 14.848 9.8438 23.758v41.441h-387.52v-41.441c0-8.9102 3.543-17.457 9.8438-23.758s14.848-9.8438 23.758-9.8438zm320.32 336h-320.32c-8.9102 0-17.457-3.5391-23.758-9.8398-6.3008-6.3008-9.8438-14.848-9.8438-23.758v-204.96h387.52v204.96c0 8.9102-3.543 17.457-9.8438 23.758-6.3008 6.3008-14.848 9.8398-23.758 9.8398z"/>
  <path d="m425.6 292.32-99.68 87.918-44.801-45.359c-4.4609-3.3438-10.699-2.8984-14.641 1.043-3.9414 3.9414-4.3828 10.18-1.0391 14.637l51.52 53.199v0.003907c2.2031 2.25 5.25 3.4688 8.3984 3.3594 2.6523-0.19531 5.1836-1.168 7.2812-2.8008l108.08-95.199c4.4062-4.3633 4.8867-11.316 1.1211-16.242-4.3945-4.4961-11.547-4.7422-16.238-0.55859z"/>
  <use x="70" y="644" xlink:href="#v"/>
  <use x="90.546875" y="644" xlink:href="#d"/>
  <use x="104.355469" y="644" xlink:href="#a"/>
  <use x="123.347656" y="644" xlink:href="#c"/>
  <use x="142.242188" y="644" xlink:href="#b"/>
  <use x="155.625" y="644" xlink:href="#a"/>
  <use x="174.617188" y="644" xlink:href="#g"/>
  <use x="204.40625" y="644" xlink:href="#f"/>
  <use x="224.449219" y="644" xlink:href="#k"/>
  <use x="252.449219" y="644" xlink:href="#j"/>
  <use x="262.867188" y="644" xlink:href="#i"/>
  <use x="282.804688" y="644" xlink:href="#u"/>
  <use x="302.84375" y="644" xlink:href="#c"/>
  <use x="321.742188" y="644" xlink:href="#t"/>
  <use x="331.335938" y="644" xlink:href="#f"/>
  <use x="351.382812" y="644" xlink:href="#c"/>
  <use x="370.273438" y="644" xlink:href="#h"/>
  <use x="390.210938" y="644" xlink:href="#g"/>
  <use x="410.25" y="644" xlink:href="#s"/>
  <use x="70" y="672" xlink:href="#r"/>
  <use x="82.183594" y="672" xlink:href="#d"/>
  <use x="95.992188" y="672" xlink:href="#e"/>
  <use x="115.226562" y="672" xlink:href="#q"/>
  <use x="154.152344" y="672" xlink:href="#b"/>
  <use x="167.535156" y="672" xlink:href="#p"/>
  <use x="187.46875" y="672" xlink:href="#a"/>
  <use x="216.207031" y="672" xlink:href="#o"/>
  <use x="239.640625" y="672" xlink:href="#e"/>
  <use x="258.878906" y="672" xlink:href="#i"/>
  <use x="278.8125" y="672" xlink:href="#h"/>
  <use x="308.492188" y="672" xlink:href="#n"/>
  <use x="329.015625" y="672" xlink:href="#d"/>
  <use x="342.820312" y="672" xlink:href="#e"/>
  <use x="362.058594" y="672" xlink:href="#m"/>
  <use x="371.65625" y="672" xlink:href="#a"/>
  <use x="390.648438" y="672" xlink:href="#l"/>
  <use x="407.242188" y="672" xlink:href="#b"/>
 </g>
</svg>
